<?xml version="1.0" encoding="utf-8"?>
<!-- Generator: Adobe Illustrator 17.1.0, SVG Export Plug-In . SVG Version: 6.00 Build 0)  -->
<!DOCTYPE svg PUBLIC "-//W3C//DTD SVG 1.1//EN" "http://www.w3.org/Graphics/SVG/1.1/DTD/svg11.dtd">
<svg version="1.1" id="Capa_1" xmlns="http://www.w3.org/2000/svg" xmlns:xlink="http://www.w3.org/1999/xlink" x="0px" y="0px"
	 viewBox="318 0 560 560" enable-background="new 318 0 560 560" xml:space="preserve">
<g>
	<path d="M585.8,115.4C589.1,93,609.3,75,631.7,75c22.4,0,38.1,17.9,34.7,40.3s-23.5,40.3-45.9,40.3
		C598.1,155.7,582.4,137.8,585.8,115.4z"/>
	<path d="M665.9,452.5c-14.6,24.1-44.2,32.5-67.8,32.5c-38.6,0-57.7-19-52.6-54.3l27.4-198.8c0.6-5-3.4-9.5-8.4-9.5h-30.2
		c-3.9,0-5.6-2.8-5-6.2c0-3.9,3.4-6.7,7.3-6.7h103.6c3.9,0,6.2,2.8,5.6,6.7l-31.4,224c-2.8,19.6,2.8,25.8,15.1,25.8
		c11.8,0,21.8-9,27.4-17.9c1.7-2.8,4.5-3.9,7.8-2.8C667,446.9,667.5,449.7,665.9,452.5z"/>
</g>
</svg>
