<?xml version="1.0" encoding="utf-8"?>
<!-- Generator: Adobe Illustrator 17.1.0, SVG Export Plug-In . SVG Version: 6.00 Build 0)  -->
<!DOCTYPE svg PUBLIC "-//W3C//DTD SVG 1.1//EN" "http://www.w3.org/Graphics/SVG/1.1/DTD/svg11.dtd">
<svg version="1.1" xmlns="http://www.w3.org/2000/svg" xmlns:xlink="http://www.w3.org/1999/xlink" x="0px" y="0px"
	 viewBox="199.6 0 560.8 560" enable-background="new 199.6 0 560.8 560" xml:space="preserve">
<g id="Layer_2_1_">
</g>
<g id="Layer_1">
	<g id="Layer_2">
	</g>
	<g>
		<path d="M480-0.4C325.1-0.4,199.6,125.1,199.6,280S325.1,560.4,480,560.4S760.4,434.9,760.4,280S634.9-0.4,480-0.4z M471.2,224
			c15.7,0,28.6,12.8,28.6,28.5c0,15.8-12.8,28.6-28.6,28.6c-15.7,0-28.5-12.8-28.5-28.6C442.6,236.9,455.4,224,471.2,224z
			 M416.5,262.7c10.6,0,19.3,8.7,19.3,19.3c0,10.7-8.7,19.3-19.3,19.3s-19.3-8.7-19.3-19.3C397.2,271.3,405.9,262.7,416.5,262.7z
			 M377.9,286.3c7.2,0,13,5.8,13,13c0,7.1-5.8,13-13,13c-7.2,0-13-5.8-13-13C364.9,292.1,370.7,286.3,377.9,286.3z M378.6,339.6
			v40.5h-22v-39.2c0-11.7,9.6-21.4,21.3-21.4c2.1,0,4.1,0.4,6,1C380.6,326.2,378.6,332.6,378.6,339.6z M419.3,333.5v61.6h-33.7
			v-55.6c0-17,13.8-30.9,30.8-30.9c3.1,0,5.9,0.6,8.7,1.4C421.6,317.1,419.3,325,419.3,333.5z M515.9,413h-89.5v-79.4
			c0-24.7,20-44.8,44.8-44.8c24.7,0,44.8,20.1,44.8,44.8V413z M506.5,281.9c0-10.6,8.7-19.3,19.3-19.3c10.7,0,19.4,8.7,19.4,19.3
			c0,10.7-8.7,19.3-19.4,19.3C515.2,301.3,506.5,292.6,506.5,281.9z M523,395.2v-61.6c0-8.5-2.2-16.4-5.8-23.4
			c2.7-0.8,5.6-1.4,8.7-1.4c17,0,30.9,13.8,30.9,30.9v55.6H523z M551.5,299.2c0-7.2,5.8-13,13-13c7.1,0,13,5.8,13,13
			c0,7.1-5.8,13-13,13C557.3,312.2,551.5,306.4,551.5,299.2z M585.8,380.1h-22v-40.5c0-7-2-13.4-5.3-19.1c1.9-0.6,3.9-1,6-1
			c11.7,0,21.3,9.6,21.3,21.4V380.1z M643.4,169c0,18-14.6,32.6-32.6,32.6h-58.6l-42.7,42.7v-42.7h-11.5c-18,0-32.6-14.6-32.6-32.6
			v-53.4c0-18,14.6-32.6,32.6-32.6h112.9c18,0,32.6,14.6,32.6,32.6V169z"/>
		<path d="M610.8,94.7H497.9c-11.5,0-20.9,9.4-20.9,20.9V169c0,11.6,9.4,20.9,20.9,20.9h23.2v26.2l26.2-26.2h63.5
			c11.5,0,20.9-9.4,20.9-20.9c0,0,0-53.4,0-53.4C631.7,104.1,622.3,94.7,610.8,94.7z"/>
	</g>
</g>
</svg>
