<?xml version="1.0" encoding="utf-8"?>
<!-- Generator: Adobe Illustrator 17.1.0, SVG Export Plug-In . SVG Version: 6.00 Build 0)  -->
<!DOCTYPE svg PUBLIC "-//W3C//DTD SVG 1.1//EN" "http://www.w3.org/Graphics/SVG/1.1/DTD/svg11.dtd">
<svg version="1.1" id="Layer_1" xmlns="http://www.w3.org/2000/svg" xmlns:xlink="http://www.w3.org/1999/xlink" x="0px" y="0px"
	 viewBox="199.6 0 560.8 560" enable-background="new 199.6 0 560.8 560" xml:space="preserve">
<g id="Layer_2">
</g>
<g>
	<path d="M595.4,128.1h-97.8c-10,0-18.1,7.3-18.1,16.3V186c0,9,8.1,16.3,18.1,16.3h20.1v20.4l22.7-20.4h55c10,0,18.1-7.3,18.1-16.3
		v-41.6C613.5,135.4,605.4,128.1,595.4,128.1z"/>
	<path d="M480-0.4C325.1-0.4,199.6,125.1,199.6,280S325.1,560.4,480,560.4S760.4,434.9,760.4,280S634.9-0.4,480-0.4z M466.1,226.9
		c17.8,0,32.4,14.5,32.4,32.3c0,17.9-14.6,32.4-32.4,32.4s-32.3-14.5-32.3-32.4C433.8,241.5,448.3,226.9,466.1,226.9z M404.2,270.7
		c12,0,21.9,9.8,21.9,21.9c0,12.1-9.8,21.9-21.9,21.9c-12,0-21.9-9.8-21.9-21.9C382.3,280.5,392.1,270.7,404.2,270.7z M360.5,297.4
		c8.1,0,14.7,6.6,14.7,14.7c0,8.1-6.6,14.7-14.7,14.7c-8.1,0-14.7-6.6-14.7-14.7C345.8,304,352.4,297.4,360.5,297.4z M361.2,357.8
		v45.9h-24.9v-44.4c0-13.3,10.9-24.2,24.2-24.2c2.4,0,4.6,0.5,6.8,1.1C363.5,342.6,361.2,349.9,361.2,357.8z M407.4,351v69.8h-38.2
		v-63c0-19.3,15.7-35,35-35c3.5,0,6.7,0.7,9.8,1.6C409.9,332.4,407.4,341.3,407.4,351z M516.9,441H415.4v-90
		c0-28,22.7-50.7,50.7-50.7c28,0,50.7,22.7,50.7,50.7V441z M506.2,292.5c0-12,9.8-21.9,21.9-21.9c12.1,0,21.9,9.8,21.9,21.9
		c0,12.1-9.8,21.9-21.9,21.9C516,314.4,506.2,304.6,506.2,292.5z M524.8,420.8V351c0-9.6-2.5-18.6-6.6-26.5c3.1-0.9,6.4-1.6,9.8-1.6
		c19.3,0,35,15.7,35,35v63H524.8z M557.1,312.1c0-8.1,6.6-14.7,14.7-14.7c8.1,0,14.7,6.6,14.7,14.7c0,8.1-6.6,14.7-14.7,14.7
		C563.7,326.8,557.1,320.2,557.1,312.1z M596,403.7h-24.9v-45.9c0-7.9-2.3-15.2-6.1-21.6c2.2-0.6,4.4-1.1,6.8-1.1
		c13.3,0,24.1,10.9,24.1,24.2V403.7z M623.7,186c0,14-12.7,25.4-28.3,25.4h-50.8l-37,33.3v-33.3h-10c-15.6,0-28.3-11.4-28.3-25.4
		v-41.6c0-14,12.7-25.4,28.3-25.4h97.8c15.6,0,28.3,11.4,28.3,25.4V186z"/>
</g>
</svg>
