<?xml version="1.0" encoding="utf-8"?>
<!-- Generator: Adobe Illustrator 17.1.0, SVG Export Plug-In . SVG Version: 6.00 Build 0)  -->
<!DOCTYPE svg PUBLIC "-//W3C//DTD SVG 1.1//EN" "http://www.w3.org/Graphics/SVG/1.1/DTD/svg11.dtd">
<svg version="1.1" id="Layer_1" xmlns="http://www.w3.org/2000/svg" xmlns:xlink="http://www.w3.org/1999/xlink" x="0px" y="0px"
	 viewBox="198.6 0 562.8 560" enable-background="new 198.6 0 562.8 560" xml:space="preserve">
<g id="Layer_2_1_">
</g>
<g id="Layer_1_1_">
	<g id="Layer_2">
	</g>
	<path d="M480-1.4c-155.4,0-281.4,126-281.4,281.4s126,281.4,281.4,281.4s281.4-126,281.4-281.4S635.4-1.4,480-1.4z M470.6,154.1
		c2.5-17.1,18.1-30.8,35.2-30.8c17.2,0,28.9,13.7,26.5,30.8c-2.5,17.1-18.1,30.8-35.2,30.8C479.8,184.9,468.1,171.2,470.6,154.1z
		 M531.7,411.8c-11.2,18.6-33.7,25-51.9,25c-29.3,0-44-14.7-40.2-41.6l21-151.8c0.5-3.9-2.4-7.3-6.3-7.3h-23c-2.9,0-4.4-2-3.9-4.9
		c0-3,2.5-4.9,5.4-4.9h79.3c2.9,0,4.9,2,4.4,4.9l-23.9,171.3c-2,15.2,2,19.6,11.7,19.6c8.8,0,16.7-6.9,21.1-13.7
		c1.4-2,3.4-2.9,5.9-2C532.7,407.4,533.2,409.8,531.7,411.8z"/>
</g>
</svg>
