<?xml version="1.0" encoding="utf-8"?>
<!-- Generator: Adobe Illustrator 17.1.0, SVG Export Plug-In . SVG Version: 6.00 Build 0)  -->
<!DOCTYPE svg PUBLIC "-//W3C//DTD SVG 1.1//EN" "http://www.w3.org/Graphics/SVG/1.1/DTD/svg11.dtd">
<svg version="1.1" id="Layer_1" xmlns="http://www.w3.org/2000/svg" xmlns:xlink="http://www.w3.org/1999/xlink" x="0px" y="0px"
	 viewBox="200.1 0 558.9 560" enable-background="new 200.1 0 558.9 560" xml:space="preserve">
<g id="Your_Icon">
	<path d="M276.2,375.8c0,0-2.2,39.8-7.3,58.2c-5.6,18.5-8.4,33.6-8.4,39.8c0,6.2,0,6.2,0,6.2h-15.7c0,0-6.7-6.2-12.9,0
		c-6.2,6.2-7.3,8.4-18.5,9s-19.6-7.3-7.3-10.1c12.3-2.8,15.1-6.7,17.9-8.4c2.8-1.1,0.6-7.3,6.2-7.3c0,0-2.8-9,2.8-9.5
		c0,0-7.3-7.3-3.9-12.3c3.4-5,7.3-21.3,6.7-41.4c-0.6-20.2-3.9-86.2-3.4-95.8H228c0,0,2.2-44.2,2.2-51l-3.9-3.9
		c0,0,3.4-10.1,5.6-16.8c2.2-6.7,1.1-19,3.4-26.9c2.2-7.3,6.2-37.5,3.4-47.6c-2.8-10.1-5-16.8,3.9-19.6c9-2.8,19.6-3.4,21.8-6.2
		c2.2-2.8,3.4-5.6,7.3-5.6c3.9,0,11.8-9.5,15.7-10.1c0,0,2.2-9.5,0-18.5c0,0-7.3-8.4-2.8-12.3c0,0-2.2-12.3,6.7-20.7s19-7.3,24.1,0
		c5,7.3,6.7,11.8,6.7,17.9s2.8,14.6-0.6,16.2c-3.4,2.2-6.2,18.5-3.4,19.6s5,5.6,5,11.2c0,0,6.7-0.6,11.2-3.4
		c4.5-2.8,6.2-7.3,6.2-11.8c0-3.9-5-12.9-5-12.9s-6.2-9.5-2.2-12.9c0,0-6.2-30.8,19-29.7s19.6,26.3,19.6,26.3s7.8,9,0.6,12.3
		c0,0-7.3,9-3.9,16.8c3.4,8.4,3.9-0.6,7.3,5.6s12.3,6.7,19,5c0,0-1.1-9,0-19c1.1-11.2-4.5-11.2-5-22.4s5.6-33,30.2-33
		c24.6,0,21.8,13.4,24.6,19.6c0,0,22.4-12.9,29.1,9.5s1.1,23,0,27.4c0,0-2.2,16.2-2.8,20.7c0,0,5.6-6.2,12.3-6.2s5.6-9,11.8-9.5
		c6.2-0.6,9.5-3.9,5.6-12.9c-3.9-9-16.2-28.6,1.7-45.9c14.6-11.8,33-5,38.1,6.7c5,11.8,3.4,19.6,3.4,19.6s13.4-15.7,24.1-5
		c10.1,11.2,11.2,28,11.2,28s12.9,5.6,11.8,19c0,0,5,0,7.3-3.4c2.8-3.4,9-3.4,9-3.4s0-7.3-2.8-12.9s-7.3-15.7-8.4-22.4
		c-0.6-6.7,2.2-26.9,16.8-24.6c0,0,6.2-10.1,18.5-1.1s12.3,19,8.4,28.6s-7.3,11.2-5.6,16.2l-3.9,0.6c0,0-2.2,15.7,0.6,16.8
		c2.8,1.1,9-2.2,11.2,5s2.2-3.9,4.5-7.3c2.2-3.4,2.2-9.5,0-12.9c-2.2-3.4-5.6-12.9,1.7-16.2c0,0-5.6-25.2,19.6-25.2
		c16.8-1.1,17.9,11.2,17.9,11.2s20.7-5.6,28,6.2c7.3,11.8,8.4,28.6,7.3,33c-0.6,3.9-3.4,15.7-8.4,15.7c-5,0-3.9,6.2,2.8,5.6
		s15.7,0,19.6,5.6c3.9,5.6,3.9,11.8,3.9,11.8s8.4-0.6,8.4,6.7c0,7.3,0.6,15.1,5.6,21.3c5,6.2,2.8,12.3,3.4,20.7
		c0.6,8.4,6.2,12.9,0,16.8c-6.2,3.9-12.9,2.2-12.9,2.2s-2.8,17.9,1.1,31.9c3.9,14.6,6.2,25.2,3.4,55.4s-5,71.7-7.3,80.1
		c-2.8,8.4-1.1,30.2-2.2,37.5c-0.6,7.3-2.2,42.6-2.2,42.6h-5.6c0,0,3.4,11.8,8.4,15.1c5,3.4,16.8,18.5,0,14.6
		c-17.4-5.6-17.9-17.9-17.9-17.9l0.6,12.3h-5v-13.4c0,0-6.2-2.2-3.9-12.9c0,0-5-3.9-5.6-22.4s-2.2-45.9,0-61.6
		c2.2-15.7-0.6-33,0-40.3c0.6-7.3-1.1-39.2-1.1-41.4c0-2.8-6.7-9.5-8.4,3.4c-1.1,12.9-2.2,30.8-5,49.8c-2.8,19-6.7,43.7-9,68.3
		c-2.2,24.6-1.1,43.1-3.4,51c-2.2,8.4-3.9,17.9-3.9,19.6c0,2.2,5,12.9,5,17.9h-28.6c0,0,2.8-6.7-3.4-9c-6.2-2.2-9.5-5-11.2,0.6
		l-20.7,1.1c0,0,7.3,11.2,6.2,16.2h-24.6l-0.6-15.7c0,0-6.7-1.1-8.4-12.3c-1.1-11.2-15.1-69.4-24.1-146.2c0,0-2.2,29.1,1.1,54.9
		c3.4,25.2,6.2,47.6,6.2,58.8c0,10.6-1.1,18.5-1.1,18.5s6.2,9.5,6.2,16.8c0,0-21.8,2.8-25.8,2.2v-15.1c0,0-8.4,0-8.4-9.5
		s-8.4-30.8-8.4-30.8s-2.2,34.2-2.8,45.4c-0.6,11.2-2.2,18.5-5,18.5c0,0,8.4,6.7,6.7,15.1h-28c0,0-0.6-11.2,2.2-15.7l-5.6-2.2
		c0,0-5-11.8-3.4-17.9c0,0-12.9,3.9-21.8,2.2c0,0,7.3,6.2,0,8.4c-7.3,2.2-12.9,0-12.9,0s-12.3,14.6-14.6-0.6l2.8-19.6l-3.9-1.1
		c0,0-3.4-15.7-9-2.8c0,0,0,2.2-16.2,7.3c-16.2,5.6-11.8-3.4-11.8-3.4s-24.6,2.8-12.3-3.9c12.3-6.7,21.3-14.6,21.3-14.6l-8.4-2.2
		c0,0,3.9-16.8,0.6-30.8c-3.4-13.4-9-37.5-12.3-45.4c-3.4-7.3-6.2-15.1-6.2-31.4c0-16.2-4.5-29.1-4.5-29.1s-1.1,28.6-5.6,48.7
		c-3.9,19.6-8.4,34.2-13.4,39.8c0,0,5,28.6,5.6,41.4c0.6,12.9,1.1,23,1.1,28.6c0,5.6-0.6,10.1,3.9,13.4c5,3.4,9,9.5,1.1,11.2
		c-7.3,1.1-28,0-28,0L354,485c0,0-6.2-2.8-7.3-11.8s-1.1-11.8-1.1-11.8l-12.9,13.4c0,0-5,15.1,0.6,21.3c5.6,6.2,5,13.4-2.8,12.9
		c-7.3-0.6-20.7,1.1-19.6-20.7l-9,3.4c0,0-43.1,5.6-31.4-6.7c11.8-12.3,11.8-12.3,11.8-12.3S284.6,384.2,276.2,375.8z"/>
</g>
</svg>
