<?xml version="1.0" encoding="utf-8"?>
<!-- Generator: Adobe Illustrator 17.1.0, SVG Export Plug-In . SVG Version: 6.00 Build 0)  -->
<!DOCTYPE svg PUBLIC "-//W3C//DTD SVG 1.1//EN" "http://www.w3.org/Graphics/SVG/1.1/DTD/svg11.dtd">
<svg version="1.1" id="Layer_1" xmlns="http://www.w3.org/2000/svg" xmlns:xlink="http://www.w3.org/1999/xlink" x="0px" y="0px"
	 viewBox="367.1 0 592.9 560" enable-background="new 367.1 0 592.9 560" xml:space="preserve">
<g>
	<path d="M844.9,0H482.2c-11.5,0-20.8,9.2-20.8,20.7v521.7c0,11.4,9.3,20.7,20.8,20.7h362.6c11.5,0,20.8-9.2,20.8-20.7V20.7
		C865.7,9.2,856.4,0,844.9,0z M828.8,526.1H495.1V37.5h333.7V526.1z"/>
	<g>
		<g>
			<path d="M804.5,275.5c0,5.6-4.4,10-10,10H532.6c-5.6,0-10-4.4-10-10l0,0c0-5.6,4.4-10,10-10h261.9
				C800.1,265.5,804.5,269.9,804.5,275.5L804.5,275.5z"/>
		</g>
		<g>
			<path d="M804.5,328.9c0,5.6-4.4,10-10,10H532.6c-5.6,0-10-4.4-10-10l0,0c0-5.6,4.4-10,10-10h261.9
				C800.1,318.9,804.5,323.3,804.5,328.9L804.5,328.9z"/>
		</g>
		<g>
			<path d="M804.5,382.3c0,5.6-4.4,10-10,10H532.6c-5.6,0-10-4.4-10-10l0,0c0-5.6,4.4-10,10-10h261.9
				C800.1,372.3,804.5,376.7,804.5,382.3L804.5,382.3z"/>
		</g>
		<g>
			<path d="M804.5,435.8c0,5.6-4.4,10-10,10H532.6c-5.6,0-10-4.4-10-10l0,0c0-5.6,4.4-10,10-10h261.9
				C800.1,425.8,804.5,430.1,804.5,435.8L804.5,435.8z"/>
		</g>
		<g>
			<path d="M804.5,489.2c0,5.6-4.4,10-10,10H532.6c-5.6,0-10-4.4-10-10l0,0c0-5.6,4.4-10,10-10h261.9
				C800.1,479.2,804.5,483.5,804.5,489.2L804.5,489.2z"/>
		</g>
		<g>
			<path d="M663.6,63.8c4.8,2.2,6.2,7,3.1,10.5c-0.5,0.6-1.1,1-1.7,1.5c-0.5,0.4-1.5,0.4-1.6,1.2c-0.1,1.2-0.1,2.4,0.1,3.6
				c0.1,0.9,1,0.4,1.5,0.3c2.3-0.4,4.7-0.9,7-1.4c16.2-3.3,32.4-6.6,48.6-9.9c2.1-0.4,4.2-0.7,6.2-1.2c1.5-0.3,3.1-0.4,3.9-2.3
				c0.6-1.5,2.6-1.5,3.8-0.5c1.3,1.1,1.4,2.9,0.3,4.1c-1.1,1.2-3.1,1.3-4,0c-1.1-1.4-2.1-0.6-3.1-0.2c-0.9,0.4-0.3,1.1-0.2,1.7
				c2.2,6.7,4.5,13.4,6.7,20.1c5.6,16.7,11.2,33.5,16.7,50.2c0.8,2.4,0.8,2.4,3.3,2.4c2.2,0,4.4,0.1,6.7,0.1c0,0.2,0,0.4,0,0.7
				c-1.1,1.1-2.1,2.4-3.3,3.4c-4.3,3.5-9.3,5.3-14.6,6.5c-8,1.8-16.2,1.9-24.3,1.2c-5.5-0.5-11-1.6-16-4.1c-2.9-1.5-5.5-3.3-7.3-6.1
				c-0.8-1.3-0.6-1.6,0.8-1.6c1,0,2-0.1,2.9,0c1.3,0.1,1.8-0.4,2.2-1.6c1.9-5.9,3.9-11.9,5.9-17.8c5.9-17.4,11.7-34.9,17.6-52.3
				c0.2-0.5,0.6-1.1,0.2-1.5c-0.5-0.5-1.1-0.1-1.7,0.1c-7.1,2.1-14.2,4.2-21.2,6.2c-12.2,3.6-24.4,7.2-36.6,10.8
				c-1.4,0.4-1.9,1.1-1.8,2.6c0.2,2.5,0.3,5,0.4,7.5c0.3,6.6,0.7,13.1,1,19.7c0.5,9.4,1.1,18.9,1.6,28.3c0.4,6.4,0.7,12.8,1,19.2
				c0.6,10.9,1.2,21.9,1.9,32.8c0.3,5.2,0.7,10.4,0.9,15.6c0.1,3.4,2,5.3,4.8,6.5c1.3,0.5,2.6,0.8,3.9,1c6.2,0.9,12.5,1.4,18.7,2.6
				c4.7,1,9.1,2.7,12,6.8c0.4,0.6,1.1,1.2,0.7,1.9c-0.4,0.6-1.2,0.3-1.8,0.3c-31.2,0-62.4,0-93.5,0c-0.6,0-1.5,0.3-1.8-0.4
				c-0.3-0.7,0.3-1.3,0.7-1.9c2.1-2.9,4.9-4.7,8.3-5.7c4-1.3,8.2-1.7,12.3-2.3c4.3-0.6,8.7-0.7,12.9-1.9c2.9-0.8,5.2-2.3,5.8-5.5
				c0.2-1.2,0.3-2.5,0.3-3.7c0.3-5.2,0.5-10.4,0.8-15.6c0.5-8.8,1-17.7,1.5-26.5c0.3-5.1,0.5-10.2,0.8-15.3c0.5-8.7,1-17.4,1.5-26.2
				c0.3-5.4,0.6-10.7,0.9-16.1c0.4-6.9,0.7-13.9,1.1-20.8c0.1-1.1-0.4-1.4-1.4-1.2c-2.4,0.5-4.8,0.9-7.2,1.4
				c-16.7,3.4-33.4,6.7-50.1,10.1c-1.1,0.2-1.4,0.6-1,1.7c4,11.8,7.9,23.7,11.9,35.5c4,11.8,7.9,23.7,11.8,35.5
				c0.5,1.6,1.3,2.2,2.9,2c1.1-0.1,2.2,0,3.3,0c1.2,0,1.3,0.5,0.7,1.4c-0.7,1-1.5,1.8-2.4,2.6c-6.3,5.2-13.9,6.9-21.7,7.8
				c-7,0.8-14,0.7-20.9-0.3c-5.3-0.8-10.4-2.1-15-5.1c-1.9-1.3-3.6-2.8-4.9-4.7c-0.8-1.3-0.7-1.6,1-1.7c1.8,0,3.7-0.1,5.5,0
				c1.1,0,1.7-0.4,2-1.5c0.5-1.9,1.2-3.7,1.8-5.6c5.2-15.3,10.3-30.7,15.5-46c2.2-6.5,4.4-13.1,6.6-19.6c0.4-1.1,0.4-1.6-1-1.3
				c-1.1,0.2-1.8,0.5-2.2,1.7c-0.5,1.7-2.3,2.4-3.8,1.7c-1.5-0.7-2-2.5-1.2-3.9c0.8-1.5,2.7-1.9,4.1-0.8c0.8,0.7,1.5,0.6,2.4,0.3
				c3.3-1,6.7-2,10-3c17-5,34-10,50.9-15c3.3-1,3.3-1,3.3-4.5c0-1.2-0.4-1.6-1.5-1.9c-2.5-0.8-4-2.6-4.4-5.1
				c-0.5-3.3,1.1-5.7,4.6-7.3C661.2,63.8,662.4,63.8,663.6,63.8z M722.8,86.1c-6.2,18.4-12.3,36.8-18.5,55.2
				c-0.9,2.5-0.9,2.5,1.7,2.5c13.9,0,27.8,0,41.7,0c1.4,0,1.8-0.2,1.3-1.7c-4.8-14.2-9.5-28.4-14.3-42.6c-2.5-7.4-4.9-14.7-7.4-22.1
				c-0.2-0.6-0.4-1.2-0.8-2.3C725.1,79.2,723.9,82.6,722.8,86.1z M595.6,119.8c-5.3,15.9-10.7,31.8-16,47.7
				c-0.7,2.2-1.4,4.3-2.2,6.5c-0.5,1.3-0.2,1.7,1.2,1.7c8.3,0,16.6,0,24.9,0c5.8,0,11.6,0,17.4,0c1.8,0,1.9-0.1,1.3-1.9
				c-5.4-16.2-10.8-32.4-16.2-48.6c-1.9-5.6-3.7-11.1-5.6-16.7c-0.1-0.3-0.2-0.6-0.6-1.3C598.4,111.7,597,115.7,595.6,119.8z"/>
		</g>
	</g>
</g>
</svg>
